<?xml version="1.0" encoding="UTF-8"?>
<svg viewBox="0 0 60 60" version="1.1" xmlns="http://www.w3.org/2000/svg">
  <defs>
    <filter id="shadow" x="-20%" y="-20%" width="140%" height="140%">
      <feGaussianBlur in="SourceAlpha" stdDeviation="2"/>
      <feOffset dx="0" dy="2" result="offsetblur"/>
      <feComponentTransfer>
        <feFuncA type="linear" slope="0.3"/>
      </feComponentTransfer>
      <feMerge>
        <feMergeNode/>
        <feMergeNode in="SourceGraphic"/>
      </feMerge>
    </filter>
  </defs>
  <g stroke="none" stroke-width="1" fill="none" fill-rule="evenodd">
    <!-- Drop shadow for the pin -->
    <path d="M30,48 L40,30 C40,30 46,26 46,18 C46,10 38.8,4 30,4 C21.2,4 14,10 14,18 C14,26 20,30 20,30 L30,48 Z" 
          fill="#d4b18c" 
          filter="url(#shadow)"/>
    
    <!-- Inner highlight for dimension -->
    <path d="M30,46 L38.5,30 C38.5,30 44,26.5 44,18 C44,11 37.5,6 30,6 C22.5,6 16,11 16,18 C16,26.5 21.5,30 21.5,30 L30,46 Z" 
          fill="#e5c9a8"/>
    
    <!-- Pin center circle -->
    <circle fill="#ffffff" cx="30" cy="18" r="7" filter="url(#shadow)"/>
    
    <!-- Pin dot -->
    <circle fill="#d4b18c" cx="30" cy="18" r="4"/>
  </g>
</svg>