<?xml version="1.0" encoding="UTF-8"?>
<svg width="130" height="40" viewBox="0 0 130 40" xmlns="http://www.w3.org/2000/svg">
  <g fill="#333">
    <circle cx="30" cy="20" r="15" fill="none" stroke="#333" stroke-width="2"/>
    <circle cx="30" cy="20" r="5" fill="#333"/>
    <path d="M57.44,14.06H53.76V11.64h10.8v2.43H60.89v14.9H57.44Z"/>
    <path d="M66.14,11.64h9.55v2.25h-6.3v4.86h5.77v2.25H69.39v5.29h6.3v2.25H66.14Z"/>
    <path d="M77.36,11.64h3.45v14.9h5.64v2.43H77.36Z"/>
    <path d="M88.3,11.64h3.45v14.9h5.64v2.43H88.3Z"/>
    <path d="M100.05,26.18l1.46-1.77a5.65,5.65,0,0,0,3.9,1.55c1.22,0,2-.49,2-1.29s-.52-1.15-2.58-1.72S99.57,21.2,99.57,18.59s2.14-4.19,5.44-4.19a7.11,7.11,0,0,1,5.33,2.19l-1.43,1.84A5.75,5.75,0,0,0,105,16.87c-1.27,0-1.89.52-1.89,1.21s.46,1.09,2.58,1.67,5.33,1.66,5.33,4.47-1.95,4.25-5.56,4.25A8.08,8.08,0,0,1,100.05,26.18Z"/>
    <path d="M114.83,11.64h3.45v8.39h5.47V11.64h3.45v17.33h-3.45V22.48h-5.47v6.49h-3.45Z"/>
  </g>
</svg>