<?xml version="1.0" encoding="UTF-8"?>
<svg width="140" height="40" viewBox="0 0 140 40" xmlns="http://www.w3.org/2000/svg">
  <g fill="#333">
    <path d="M19.34,28.55a5.35,5.35,0,0,1-3.75,1.45H10.3V11.47h5.29a5.35,5.35,0,0,1,3.75,1.45,4.85,4.85,0,0,1,1.58,3.7v8.25A4.82,4.82,0,0,1,19.34,28.55ZM17.1,16.62a1.71,1.71,0,0,0-1.81-1.9H13.43V27.74h1.86a1.71,1.71,0,0,0,1.81-1.9Z"/>
    <path d="M33.43,30V18.16a1.71,1.71,0,0,0-1.81-1.9h-.69V30H27.8V11.47h5.63a5.32,5.32,0,0,1,3.75,1.45,5,5,0,0,1,1.57,3.7V30Z"/>
    <path d="M52.5,30V11.47h3.13V30Z"/>
    <path d="M68.93,30V11.47h3.13V27.74h6.24V30Z"/>
    <path d="M92.61,30l-.78-4h-4l-.78,4H83.91L88,11.47h3.72L95.75,30ZM89.75,16.11l-1.41,7.52h2.83Z"/>
    <path d="M121.21,30h-3.06l-2.63-11V30h-2.93V11.47h4.55L119.41,23l2.3-11.57h4.54V30h-2.93V19Z"/>
  </g>
  <rect x="44.5" y="11.47" width="3.13" height="18.53" fill="#333"/>
  <text x="105" y="21" font-family="Arial, sans-serif" font-size="6" fill="#333">THE</text>
  <text x="105" y="28" font-family="Arial, sans-serif" font-size="6" fill="#333">MOUNTAIN</text>
</svg>