<?xml version="1.0" encoding="UTF-8"?>
<svg width="130" height="40" viewBox="0 0 130 40" xmlns="http://www.w3.org/2000/svg">
  <g fill="#333">
    <path d="M14.93,17.29v3.27h5.76v4.23H14.93v5H9.66V13.06H21.66v4.23Z"/>
    <path d="M32.72,29.79l-3.31-5.71H28v5.71H22.73V13.06h8.67c4.39,0,7.11,2.26,7.11,5.56a5,5,0,0,1-3.06,4.74l3.79,6.43ZM28,19.9h3.25c1.42,0,2.18-.65,2.18-1.7s-.76-1.68-2.18-1.68H28Z"/>
    <path d="M40.3,21.42c0-5,3.9-8.7,9.34-8.7s9.32,3.66,9.32,8.7-3.9,8.72-9.32,8.72S40.3,26.47,40.3,21.42Zm13.18,0c0-2.62-1.61-4.27-3.84-4.27s-3.82,1.65-3.82,4.27,1.61,4.29,3.82,4.29S53.48,24.06,53.48,21.42Z"/>
    <path d="M61.34,17.29v3.27H67.1v4.23H61.34v5H56.07V13.06h12v4.23Z"/>
    <path d="M70.91,21.42c0-5,3.9-8.7,9.34-8.7s9.32,3.66,9.32,8.7-3.9,8.72-9.32,8.72S70.91,26.47,70.91,21.42Zm13.18,0c0-2.62-1.61-4.27-3.84-4.27s-3.82,1.65-3.82,4.27,1.61,4.29,3.82,4.29S84.09,24.06,84.09,21.42Z"/>
    <path d="M92,13.06h5.27v11.4c0,1.44.86,2.37,2.18,2.37s2.2-.93,2.2-2.37V13.06h5.26V24.46c0,3.41-2.91,5.68-7.46,5.68s-7.45-2.27-7.45-5.68Z"/>
  </g>
</svg>