<?xml version="1.0" encoding="UTF-8"?>
<svg width="140" height="40" viewBox="0 0 140 40" xmlns="http://www.w3.org/2000/svg">
  <g fill="#333">
    <rect x="16" y="15" width="10" height="1.5"/>
    <rect x="16" y="19" width="10" height="1.5"/>
    <rect x="16" y="23" width="10" height="1.5"/>
    <path d="M40.17,13.15h3.1v12h6.08v2.38H40.17Z"/>
    <path d="M51.21,13.15h3.1v14.4H51.21Z"/>
    <path d="M60.83,15.65H57.25V13.15h10.7v2.5H64.36v11.9H60.83Z"/>
    <path d="M70.2,13.15h3.1v14.4H70.2Z"/>
    <path d="M83.05,27.55l-3.47-5.88H78.21v5.88H75.11V13.15h5.43c4.35,0,7,2.33,7,4.28a3.8,3.8,0,0,1-3,3.87l3.75,6.25Zm-4.84-8.05h2.33c1.4,0,2.15-.67,2.15-1.75s-.75-1.73-2.15-1.73H78.21Z"/>
    <path d="M97.05,27.55,93.58,21.7H92.21v5.86H89.11V13.15h5.43c4.35,0,7,2.33,7,4.28a3.8,3.8,0,0,1-3,3.87l3.75,6.25Zm-4.84-8h2.33c1.4,0,2.15-.67,2.15-1.75s-.75-1.73-2.15-1.73H92.21Z"/>
    <path d="M104.16,13.15h9.45v2.23h-6.25v3.77h5.72v2.23h-5.72v3.95h6.25v2.23h-9.45Z"/>
    <path d="M126.21,27.55a6.7,6.7,0,0,1-5.38-2.18l1.53-1.82a4.45,4.45,0,0,0,3.55,1.53c1.65,0,2.7-.83,2.7-2.08,0-1.05-.57-1.7-3.38-2.4-3.12-.78-4.8-1.78-4.8-4.32s2-4.33,5-4.33a6.87,6.87,0,0,1,4.83,1.75l-1.43,1.9a4.9,4.9,0,0,0-3.22-1.2c-1.55,0-2.18.82-2.18,1.75,0,.82.5,1.45,3.18,2.08s5,1.65,5,4.57C131.66,25.65,129.61,27.55,126.21,27.55Z"/>
  </g>
</svg>